<?xml version="1.0" encoding="utf-8"?>
<!-- Generator: Adobe Illustrator 16.0.0, SVG Export Plug-In . SVG Version: 6.00 Build 0)  -->
<!DOCTYPE svg PUBLIC "-//W3C//DTD SVG 1.1//EN" "http://www.w3.org/Graphics/SVG/1.1/DTD/svg11.dtd">
<svg version="1.1" id="Layer_1" xmlns:sketch="http://www.bohemiancoding.com/sketch/ns"
	 xmlns="http://www.w3.org/2000/svg" xmlns:xlink="http://www.w3.org/1999/xlink" x="0px" y="0px" width="24px" height="24px"
	 viewBox="0 0 24 24" enable-background="new 0 0 24 24" xml:space="preserve">
<title>info</title>
<desc>Created with Sketch.</desc>
<g id="Page-1">
	<path fill="#FFFFFF" d="M8.36,6.427h14.526c0.248,0,0.446-0.199,0.446-0.447c0-0.249-0.198-0.447-0.446-0.447H8.36
		c-0.249,0-0.447,0.198-0.447,0.447C7.913,6.228,8.111,6.427,8.36,6.427z"/>
	<path fill="#FFFFFF" d="M22.859,11.417H8.36c-0.249,0-0.447,0.199-0.447,0.446c0,0.249,0.198,0.448,0.447,0.448h14.526
		c0.248,0,0.446-0.199,0.446-0.448C23.332,11.617,23.108,11.417,22.859,11.417z"/>
	<path fill="#FFFFFF" d="M22.859,17.277H8.36c-0.249,0-0.447,0.199-0.447,0.447S8.111,18.17,8.36,18.17h14.526
		c0.248,0,0.446-0.197,0.446-0.445S23.108,17.277,22.859,17.277z"/>
	<path fill="#FFFFFF" d="M5.132,9.531H1.358c-0.248,0-0.446,0.197-0.446,0.446v3.774c0,0.248,0.198,0.445,0.446,0.445h3.774
		c0.249,0,0.446-0.197,0.446-0.445V9.978C5.555,9.729,5.355,9.531,5.132,9.531z"/>
	<path fill="#FFFFFF" d="M1.259,8.115h3.874c0.149,0,0.298-0.074,0.373-0.223c0.074-0.149,0.074-0.298,0-0.448L3.568,4.093
		C3.494,3.968,3.344,3.87,3.195,3.87c-0.148,0-0.298,0.074-0.372,0.224L0.887,7.47c-0.075,0.124-0.075,0.298,0,0.447
		C0.961,8.065,1.11,8.115,1.259,8.115z"/>
	<path fill="#FFFFFF" d="M3.32,15.217c-1.366,0-2.483,1.117-2.483,2.484c0,1.365,1.118,2.482,2.483,2.482s2.483-1.117,2.483-2.482
		C5.803,16.334,4.686,15.217,3.32,15.217z"/>
</g>
</svg>
